<svg width="29" height="32" viewBox="0 0 29 32" fill="none" xmlns="http://www.w3.org/2000/svg">
<g clip-path="url(#clip0_74_2)">
<path d="M22.5886 15.5988L18.3804 11.3906C19.3374 9.96994 19.8095 8.1949 19.5568 6.3035C19.1257 3.08635 16.489 0.468269 13.2687 0.0605621C8.48078 -0.545285 4.45469 3.4808 5.06057 8.26873C5.46838 11.4904 8.08682 14.1293 11.3043 14.5582C13.1957 14.8109 14.9711 14.3389 16.3914 13.3819L20.5996 17.5901C21.1488 18.1392 22.0393 18.1392 22.5884 17.5901C23.1371 17.0402 23.1371 16.1472 22.5886 15.5988ZM7.78082 7.31248C7.78082 4.83116 9.79949 2.81249 12.2808 2.81249C14.7621 2.81249 16.7808 4.83116 16.7808 7.31248C16.7808 9.79381 14.7621 11.8125 12.2808 11.8125C9.79949 11.8125 7.78082 9.79451 7.78082 7.31248Z" fill="#9E9E9E"/>
</g>
<line x1="-1.31134e-07" y1="30.5" x2="29" y2="30.5" stroke="#9E9E9E" stroke-width="3"/>
<defs>
<clipPath id="clip0_74_2">
<rect width="18" height="18" fill="white" transform="translate(5)"/>
</clipPath>
</defs>
</svg>
